<?xml version="1.0" standalone="no"?>
<!DOCTYPE svg PUBLIC "-//W3C//DTD SVG 20010904//EN"
 "http://www.w3.org/TR/2001/REC-SVG-20010904/DTD/svg10.dtd">
<svg version="1.0" xmlns="http://www.w3.org/2000/svg"
 width="300.000000pt" height="95.000000pt" viewBox="0 0 300.000000 95.000000"
 preserveAspectRatio="xMidYMid meet">
<metadata>
Created by potrace 1.10, written by Peter Selinger 2001-2011
</metadata>
<g transform="translate(0.000000,95.000000) scale(0.050000,-0.050000)"
fill="#000000" stroke="none">
<path d="M4913 1770 c-17 -16 -45 -30 -63 -30 -38 0 -90 -113 -90 -196 0 -32
-18 -74 -40 -94 -57 -51 -86 -181 -73 -315 11 -98 7 -119 -28 -152 -173 -161
-139 -433 37 -297 44 34 139 36 151 4 15 -38 61 -38 92 -1 13 16 48 31 77 35
41 4 65 27 98 93 24 49 57 103 73 120 81 91 87 316 12 439 -21 36 -39 101 -39
144 0 191 -121 336 -207 250z m112 -45 c38 -43 75 -172 75 -263 0 -38 15 -85
32 -105 73 -80 60 -317 -22 -406 -28 -29 -50 -71 -50 -92 0 -56 -78 -129 -106
-101 -32 32 -48 27 -60 -20 -13 -49 -52 -43 -83 13 -11 22 -23 43 -26 48 -3 4
-18 -9 -33 -30 -24 -32 -33 -33 -60 -11 -27 23 -32 22 -32 -6 0 -72 -138 -80
-140 -8 0 36 87 176 110 176 34 0 54 103 50 263 -3 138 31 242 87 263 17 7 25
29 19 59 -12 62 43 195 81 195 15 0 39 14 53 30 33 40 67 38 105 -5z"/>
<path d="M680 890 l0 -570 60 0 60 0 0 181 0 182 54 -7 c50 -5 59 -21 106
-176 l52 -170 74 -6 c90 -8 89 -16 11 207 l-63 182 43 59 c116 156 82 626 -48
676 -18 6 -104 12 -191 12 l-158 0 0 -570z m319 311 c74 -137 8 -301 -120
-301 l-79 0 0 170 0 170 89 0 c68 0 95 -9 110 -39z"/>
<path d="M2270 890 l0 -570 55 0 55 0 0 181 0 182 54 -7 c49 -5 59 -22 108
-176 l54 -170 79 -6 79 -6 -69 199 -69 200 42 56 c98 132 99 491 2 627 -42 59
-46 60 -216 60 l-174 0 0 -570z m306 325 c100 -121 26 -314 -121 -315 l-75 0
0 170 0 170 88 0 c48 0 96 -11 108 -25z"/>
<path d="M1184 1000 c8 -542 42 -644 224 -673 186 -31 248 144 257 716 l5 374
-55 8 c-78 11 -75 24 -75 -365 0 -388 -16 -473 -92 -492 -118 -30 -148 78
-148 526 l0 344 -62 -4 -61 -4 7 -430z"/>
<path d="M1700 890 l0 -550 62 0 61 0 -6 350 c-4 193 -2 350 5 350 6 0 37 -92
67 -205 31 -113 63 -217 71 -231 7 -15 43 74 80 205 37 127 73 231 79 231 7 0
8 -157 4 -350 l-8 -350 63 0 62 0 0 550 0 550 -65 0 c-71 0 -57 30 -166 -348
-40 -139 -43 -135 -120 143 l-56 205 -66 0 -67 0 0 -550z"/>
<path d="M2763 1000 c8 -480 33 -586 158 -651 225 -116 313 70 323 674 l6 394
-55 8 c-78 11 -75 26 -75 -379 0 -410 -17 -486 -110 -486 -102 0 -119 69 -127
493 l-7 385 -59 -4 -60 -4 6 -430z"/>
<path d="M3282 890 l-2 -550 59 0 60 0 6 355 5 355 68 -237 c38 -132 75 -225
82 -210 8 15 40 119 72 232 78 276 85 262 73 -148 l-11 -353 94 11 c93 10 172
62 214 140 29 53 55 215 35 215 -9 0 -17 -22 -17 -49 0 -104 -107 -271 -174
-271 -45 0 -28 38 32 69 154 80 158 398 5 486 l-59 33 -3 209 -2 208 60 -51
c68 -57 89 -65 226 -83 110 -15 138 -43 69 -70 -107 -40 -86 -119 38 -139 90
-15 133 -110 124 -272 -6 -108 -30 -130 -171 -160 l-65 -13 0 116 c-1 141 -50
258 -139 333 -99 83 -106 64 -10 -31 95 -96 135 -206 126 -351 -3 -57 3 -94
18 -99 36 -12 245 53 245 76 0 11 23 29 50 39 56 21 69 94 20 113 -16 6 -30
27 -30 46 0 55 -135 406 -163 423 -14 8 -71 21 -126 29 -123 16 -226 61 -252
112 -14 24 -42 37 -85 37 l-65 0 -58 -215 c-76 -283 -75 -283 -151 -16 l-66
231 -64 0 -65 0 -3 -550z m974 225 c5 -27 -7 -35 -55 -35 -65 0 -76 17 -36 57
33 33 83 21 91 -22z m-357 -244 c90 -95 67 -334 -37 -390 -41 -22 -42 -19 -42
208 0 245 6 259 79 182z"/>
<path d="M3937 947 c34 -42 70 -113 80 -157 16 -67 19 -71 21 -24 3 72 -66
206 -121 235 -34 19 -30 8 20 -54z"/>
</g>
</svg>
